Coordinates
version=1
nRows=31
nColumns=38
inDegrees=no

Units are S.I. units (second, meters, Newtons, ...)
If the header above contains a line with 'inDegrees', this indicates whether rotational values are in degrees (yes) or radians (no).

endheader
time	pelvis_tilt	pelvis_list	pelvis_rotation	pelvis_tx	pelvis_ty	pelvis_tz	hip_flexion_r	hip_adduction_r	hip_rotation_r	knee_angle_r	ankle_angle_r	subtalar_angle_r	mtp_angle_r	hip_flexion_l	hip_adduction_l	hip_rotation_l	knee_angle_l	ankle_angle_l	subtalar_angle_l	mtp_angle_l	lumbar_extension	lumbar_bending	lumbar_rotation	arm_flex_r	arm_add_r	arm_rot_r	elbow_flex_r	pro_sup_r	wrist_flex_r	wrist_dev_r	arm_flex_l	arm_add_l	arm_rot_l	elbow_flex_l	pro_sup_l	wrist_flex_l	wrist_dev_l
0	2.01358	1.41184	-0.429428	0.805126	-0.409602	1.01028	0.120822	0.111786	-0.465923	0.35158	0.0604497	0	0	0.215663	-0.222548	0.0868723	1.25831	-0.0681182	0	0	-0.314356	0.157073	0.0825065	-0.0835183	-0.212977	-0.00906983	0.35599	1.40058	0	0	0.0267786	-0.224296	0.297133	0.381065	1.41769	0	0
0.01	2.01959	1.41432	-0.443728	0.806853	-0.402182	1.01135	0.106756	0.113639	-0.457278	0.33887	0.0557125	0	0	0.236033	-0.215903	0.0855968	1.26445	-0.0684773	0	0	-0.315479	0.15325	0.0872038	-0.0808327	-0.215978	-0.00594925	0.360202	1.39998	0	0	0.0255049	-0.226707	0.312743	0.388748	1.39112	0	0
0.02	2.0422	1.41929	-0.472813	0.808063	-0.394531	1.0125	0.0931209	0.109856	-0.450926	0.332276	0.0615971	0	0	0.257069	-0.202108	0.0782014	1.27154	0.00905379	0	0	-0.317338	0.147017	0.0901247	-0.0785883	-0.218898	-0.00426527	0.36381	1.39961	0	0	0.0261777	-0.226027	0.315266	0.39059	1.38529	0	0
0.03	2.12749	1.4173	-0.560249	0.810799	-0.386825	1.0146	0.0667482	0.12422	-0.419286	0.315489	0.0562687	0	0	0.264594	-0.200138	0.0880576	1.26725	-0.0719571	0	0	-0.330887	0.138919	0.0940636	-0.0764404	-0.217181	-0.00289901	0.366626	1.39819	0	0	0.0296635	-0.231401	0.325009	0.396427	1.36947	0	0
0.04	2.12778	1.41459	-0.570035	0.812186	-0.378104	1.01488	0.049762	0.130521	-0.409296	0.305655	0.0636389	0	0	0.27822	-0.182802	0.11175	1.26652	-0.0611682	0	0	-0.329636	0.1411	0.10262	-0.0802734	-0.222836	-0.000378612	0.373158	1.39812	0	0	0.0268893	-0.22892	0.326719	0.398454	1.36573	0	0
0.05	2.25922	1.41456	-0.706651	0.814779	-0.371629	1.01844	0.0141226	0.125398	-0.391393	0.283784	0.0572511	0	0	0.276109	-0.183601	0.0818292	1.24806	-0.0670559	0	0	-0.353599	0.124063	0.104431	-0.0672809	-0.218454	0.00159436	0.368337	1.39766	0	0	0.0356101	-0.234471	0.334024	0.401153	1.35297	0	0
0.06	2.28328	1.41444	-0.736264	0.816247	-0.364062	1.01932	-0.003676	0.126839	-0.381891	0.27147	0.0577193	0	0	0.288199	-0.17805	0.079785	1.23646	-0.0591469	0	0	-0.357437	0.120815	0.108203	-0.0626466	-0.219887	0.00342032	0.366438	1.39744	0	0	0.0377549	-0.233711	0.336025	0.401669	1.35012	0	0
0.07	2.24863	1.41843	-0.70189	0.816629	-0.356722	1.01881	-0.00865499	0.129984	-0.379229	0.262738	0.0616917	0	0	0.311524	-0.177132	0.0772075	1.22283	-0.047084	0	0	-0.350125	0.123825	0.107139	-0.0585798	-0.22323	0.00603714	0.36393	1.39666	0	0	0.0388525	-0.230607	0.336653	0.400479	1.34793	0	0
0.08	2.34546	1.41098	-0.806828	0.818988	-0.34892	1.02109	-0.0465958	0.131849	-0.358108	0.238778	0.0570909	0	0	0.305204	-0.168718	0.075109	1.20302	-0.0421977	0	0	-0.368951	0.115079	0.112804	-0.0483187	-0.22112	0.00958733	0.353666	1.39609	0	0	0.0430031	-0.23132	0.336349	0.398514	1.3426	0	0
0.09	2.38008	1.40945	-0.845094	0.82004	-0.341354	1.02186	-0.0676141	0.132682	-0.348999	0.22349	0.0578257	0	0	0.312021	-0.163624	0.0713426	1.18087	-0.0348813	0	0	-0.375171	0.111605	0.114031	-0.0392635	-0.221691	0.0150844	0.345146	1.39637	0	0	0.0460242	-0.228978	0.332508	0.395349	1.34209	0	0
0.1	2.41324	1.40819	-0.881528	0.821193	-0.333949	1.02251	-0.0880171	0.133021	-0.338629	0.208634	0.0573812	0	0	0.317796	-0.158357	0.0668038	1.15512	-0.0266912	0	0	-0.381074	0.107781	0.114733	-0.0296274	-0.221778	0.0211458	0.335645	1.39485	0	0	0.0495332	-0.226383	0.326902	0.391286	1.34424	0	0
0.11	2.44478	1.40724	-0.917058	0.82238	-0.326513	1.02298	-0.107811	0.133004	-0.326922	0.193911	0.0560422	0	0	0.322968	-0.153628	0.0603873	1.12693	-0.0208605	0	0	-0.386413	0.103406	0.116203	-0.0196372	-0.221372	0.0260579	0.32471	1.39345	0	0	0.0529829	-0.223968	0.321851	0.387556	1.34766	0	0
0.12	2.47721	1.40632	-0.954625	0.823688	-0.319017	1.02334	-0.126648	0.132065	-0.315904	0.181282	0.0574173	0	0	0.326194	-0.149709	0.0515367	1.09564	-0.015072	0	0	-0.391595	0.0979888	0.118975	-0.0105922	-0.220504	0.0287564	0.314552	1.39421	0	0	0.056133	-0.222334	0.31813	0.384962	1.35169	0	0
0.13	2.48927	1.4124	-0.965713	0.824463	-0.31249	1.0231	-0.132626	0.129109	-0.312653	0.174863	0.0613138	0	0	0.333157	-0.153846	0.0218945	1.05064	-0.00874606	0	0	-0.390538	0.0931064	0.115135	-0.0017216	-0.219574	0.032078	0.309474	1.39409	0	0	0.0609225	-0.221916	0.317281	0.383241	1.35178	0	0
0.14	2.46725	1.40868	-0.951655	0.825689	-0.303729	1.02209	-0.150086	0.136473	-0.299981	0.162448	0.0655057	0	0	0.340722	-0.149885	0.0339993	1.02666	0.00192886	0	0	-0.388351	0.0972451	0.122862	-0.0025525	-0.223302	0.0384242	0.309203	1.39076	0	0	0.05843	-0.218551	0.314628	0.381314	1.35371	0	0
0.15	2.50993	1.409	-0.997174	0.826974	-0.296701	1.02245	-0.165939	0.132195	-0.292264	0.154684	0.0666716	0	0	0.352415	-0.153196	0.00820628	1.00424	-0.00289422	0	0	-0.395398	0.0892933	0.123056	0.00504999	-0.221729	0.040438	0.305816	1.38918	0	0	0.0630926	-0.219669	0.31424	0.380626	1.35359	0	0
0.16	2.44762	1.41339	-0.935639	0.827128	-0.288288	1.0201	-0.166803	0.137984	-0.287703	0.152684	0.0753215	0	0	0.359281	-0.146387	0.0216579	0.957841	0.0158249	0	0	-0.382603	0.0980695	0.124363	0.00228745	-0.227282	0.043539	0.307595	1.38944	0	0	0.0606365	-0.215246	0.313812	0.378923	1.35336	0	0
0.17	2.517	1.41587	-1.0065	0.827926	-0.28201	1.02087	-0.18037	0.128245	-0.284782	0.148654	0.0799845	0	0	0.364889	-0.147143	-0.0137991	0.924904	0.00432193	0	0	-0.392794	0.0856167	0.122335	0.0116694	-0.225298	0.0490682	0.305391	1.38923	0	0	0.0682232	-0.217243	0.313845	0.377803	1.35297	0	0
0.18	2.50126	1.41589	-0.99546	0.828868	-0.273575	1.01955	-0.189606	0.129856	-0.27749	0.146727	0.0883181	0	0	0.360366	-0.133949	0.00625993	0.873993	0.0157276	0	0	-0.390118	0.0875247	0.126889	0.0107371	-0.228739	0.0550825	0.306233	1.39157	0	0	0.0675223	-0.215323	0.312773	0.377572	1.3526	0	0
0.19	2.59357	1.41697	-1.08945	0.829595	-0.267305	1.02054	-0.204181	0.116543	-0.276186	0.145173	0.0936705	0	0	0.357942	-0.130193	-0.0315139	0.832748	0.00533659	0	0	-0.403361	0.0723333	0.124083	0.0210164	-0.226417	0.0611256	0.303448	1.39237	0	0	0.0751614	-0.217906	0.312403	0.377727	1.3521	0	0
0.2	2.63318	1.41727	-1.13249	0.830364	-0.259702	1.02025	-0.215742	0.110023	-0.272489	0.144872	0.100922	0	0	0.352297	-0.121894	-0.0429817	0.784095	0.00650341	0	0	-0.408135	0.0654294	0.124841	0.0259241	-0.226388	0.0642836	0.301363	1.39196	0	0	0.0775559	-0.218246	0.311435	0.378265	1.35188	0	0
0.21	2.66406	1.41766	-1.16613	0.831063	-0.251985	1.0198	-0.226967	0.104904	-0.269025	0.143624	0.107333	0	0	0.347434	-0.114973	-0.0547135	0.736073	0.00732892	0	0	-0.411765	0.0599053	0.125255	0.0300257	-0.226339	0.0664095	0.300091	1.39098	0	0	0.0792333	-0.218539	0.310452	0.379585	1.35177	0	0
0.22	2.69288	1.41797	-1.19754	0.831705	-0.244166	1.01925	-0.238463	0.100068	-0.265254	0.141551	0.11285	0	0	0.342726	-0.108722	-0.0681912	0.688945	0.00973108	0	0	-0.415216	0.054731	0.125563	0.0339726	-0.226353	0.0689316	0.298891	1.3902	0	0	0.080675	-0.218849	0.3094	0.381103	1.3515	0	0
0.23	2.74646	1.41285	-1.25679	0.833595	-0.236392	1.0196	-0.25896	0.094176	-0.255318	0.134737	0.112946	0	0	0.32865	-0.100109	-0.0809488	0.638671	0.0116489	0	0	-0.426553	0.0440754	0.128243	0.0400168	-0.223119	0.0722578	0.295115	1.38976	0	0	0.0836834	-0.222245	0.30886	0.383708	1.35075	0	0
0.24	2.66909	1.41768	-1.18483	0.83376	-0.2275	1.01748	-0.265937	0.0948974	-0.269593	0.1246	0.125691	0	0	0.354612	-0.102916	-0.0602244	0.647989	-0.0099825	0	0	-0.416631	0.054223	0.131877	0.0409146	-0.22649	0.0770598	0.293739	1.39104	0	0	0.0788213	-0.2197	0.30852	0.384631	1.35009	0	0
0.25	2.6754	1.41451	-1.1958	0.834578	-0.218222	1.01642	-0.284202	0.0948301	-0.262977	0.116202	0.126922	0	0	0.327682	-0.100326	-0.0834193	0.555615	0.0322082	0	0	-0.41837	0.0529898	0.135669	0.0401485	-0.228326	0.0875047	0.293785	1.38441	0	0	0.0757502	-0.220394	0.31309	0.387376	1.34533	0	0
0.26	2.68077	1.42189	-1.19683	0.833748	-0.209833	1.0145	-0.286318	0.0903386	-0.268459	0.116635	0.13306	0	0	0.333123	-0.0938213	-0.0964893	0.514798	0.0370416	0	0	-0.411675	0.05279	0.129767	0.0407966	-0.230775	0.0902809	0.294409	1.38289	0	0	0.0754059	-0.218236	0.312966	0.386262	1.34448	0	0
0.27	2.70183	1.42319	-1.21865	0.834237	-0.201284	1.01339	-0.297678	0.0865409	-0.266931	0.113516	0.140222	0	0	0.330727	-0.088725	-0.111062	0.476513	0.0394516	0	0	-0.412578	0.0484906	0.128644	0.0422356	-0.231358	0.102093	0.294455	1.3749	0	0	0.0758254	-0.218679	0.31178	0.385999	1.34269	0	0
0.28	2.70019	1.41803	-1.22329	0.836018	-0.192075	1.01252	-0.318815	0.0895686	-0.254672	0.10159	0.138273	0	0	0.333895	-0.101349	-0.159535	0.466915	0.0518392	0	0	-0.417376	0.0460804	0.134837	0.0420166	-0.230531	0.11166	0.294241	1.36762	0	0	0.0737854	-0.22204	0.315344	0.390459	1.33676	0	0
0.29	2.73901	1.41927	-1.26131	0.836435	-0.183651	1.01166	-0.329606	0.0831773	-0.255898	0.100854	0.145329	0	0	0.320754	-0.0831059	-0.145257	0.411087	0.0435488	0	0	-0.420688	0.0389549	0.132123	0.045244	-0.228991	0.112753	0.292878	1.36404	0	0	0.0754303	-0.223888	0.315833	0.391602	1.33488	0	0
0.3	2.75331	1.42008	-1.27528	0.836736	-0.174645	1.01031	-0.34015	0.0804469	-0.255693	0.100224	0.153234	0	0	0.319891	-0.0781232	-0.158007	0.382889	0.0428788	0	0	-0.421291	0.0360765	0.131182	0.0455258	-0.229011	0.114429	0.293085	1.35988	0	0	0.0750172	-0.224871	0.317662	0.392542	1.33268	0	0
